# xmcd
#
# Track frame offsets: 
#        150
#        11702
#        22782
#        33552
#        44896
#        56466
#        68068
#        80090
#        91091
#        104680
#        118936
#        130786
#        145104
#        155784
#        166667
#        176771
#        186497
#        199491
#        212922
#        225079
#        234449
#        246872
#        256802
#        269017
#        280773
#
# Disc length: 3894 seconds
#
# Revision: 2
# Processed by: cddbd v1.5.2PL0 Copyright (c) Steve Scherf et al.
# Submitted via: ExactAudioCopyFreeDBPlugin 1.0
#
DISCID=6c0f3419
DTITLE=Various Artist - Rhythm 'n' Blues:  Shouters [Membran Music] [
DTITLE=box set]
DYEAR=2006
DGENRE=Rhythm and Blues
TTITLE0=Roy Brown - Mr Hound Dog's in Town
TTITLE1=Big John Greer - Bottle it Up and Go
TTITLE2=Jimmy Rushing - Hi-Ho-Sylvester
TTITLE3=The Sly Fox - I'm Tired of Beggin'
TTITLE4=Tiny Grimes - Hey Now
TTITLE5=Gene Phillips - Rock Bottom
TTITLE6=Louis Jordan - Caldonia
TTITLE7=Stomp Gordon - Damp Rag
TTITLE8=Big Joe Turner - Shake Rattle and Roll
TTITLE9=Lionel Hampton - Hey! Ba-Ba-Re-Bop
TTITLE10=Wynonie Harris - Sittin' on it All the Time
TTITLE11=Goree Carter - She's Just Old Fashioned
TTITLE12=Calvin Boze - Safronia B.
TTITLE13=Freddie Kohlman Orchestra - Hole in the Ground
TTITLE14=Dave Bartholomew - My Ding-A-Ling
TTITLE15=Fats Noel - Ride Daddy, Ride
TTITLE16=Big Bill Broonzy - You've Been Mistreating Me
TTITLE17=Milt Trenier - Flip Our Wigs
TTITLE18=Tiny Bradshaw - Breakin' Up the House
TTITLE19=Jimmy Wilson - Jumpin' from Six to Six
TTITLE20=H-Bomb Ferguson - I Love My Baby
TTITLE21=Bullmoose Jackson - Big Ten Inch Record
TTITLE22=Champion Jack Dupree - Shim Sham Shimmy
TTITLE23=B.B. King - Shake it Up and Go
TTITLE24=T-Bone Walker - The Hustle is On
EXTD=
EXTT0=
EXTT1=
EXTT2=
EXTT3=
EXTT4=
EXTT5=
EXTT6=
EXTT7=
EXTT8=
EXTT9=
EXTT10=
EXTT11=
EXTT12=
EXTT13=
EXTT14=
EXTT15=
EXTT16=
EXTT17=
EXTT18=
EXTT19=
EXTT20=
EXTT21=
EXTT22=
EXTT23=
EXTT24=
PLAYORDER=
